{
  "accessors": [
    {
      "bufferView": 2,
      "componentType": 5126,
      "count": 432,
      "max": [
        17.616279602050781,
        5.0449872016906738,
        30.139184951782227
      ],
      "min": [
        -24.852302551269531,
        -8.2827873229980469,
        1.6526390314102173
      ],
      "type": "VEC3"
    },
    {
      "bufferView": 2,
      "byteOffset": 5184,
      "componentType": 5126,
      "count": 432,
      "max": [
        1,
        1,
        1
      ],
      "min": [
        -1,
        -1,
        -1
      ],
      "type": "VEC3"
    },
    {
      "bufferView": 3,
      "componentType": 5126,
      "count": 432,
      "max": [
        1,
        1,
        1,
        1
      ],
      "min": [
        -0.71349424123764038,
        -1,
        -1,
        1
      ],
      "type": "VEC4"
    },
    {
      "bufferView": 1,
      "componentType": 5126,
      "count": 432,
      "max": [
        0.13065099716186523,
        0.76594799757003784
      ],
      "min": [
        0.034191999584436417,
        0.66991198062896729
      ],
      "type": "VEC2"
    },
    {
      "bufferView": 0,
      "componentType": 5125,
      "count": 1182,
      "max": [
        431
      ],
      "min": [
        0
      ],
      "type": "SCALAR"
    },
    {
      "bufferView": 2,
      "byteOffset": 10368,
      "componentType": 5126,
      "count": 9243,
      "max": [
        37.255416870117188,
        41.226661682128906,
        47.961318969726562
      ],
      "min": [
        -31.253759384155273,
        -33.784454345703125,
        1.6144030094146729
      ],
      "type": "VEC3"
    },
    {
      "bufferView": 2,
      "byteOffset": 121284,
      "componentType": 5126,
      "count": 9243,
      "max": [
        1,
        1,
        1
      ],
      "min": [
        -1,
        -1,
        -1
      ],
      "type": "VEC3"
    },
    {
      "bufferView": 3,
      "byteOffset": 6912,
      "componentType": 5126,
      "count": 9243,
      "max": [
        1,
        1,
        1,
        1
      ],
      "min": [
        -1,
        -1,
        -1,
        -1
      ],
      "type": "VEC4"
    },
    {
      "bufferView": 1,
      "byteOffset": 3456,
      "componentType": 5126,
      "count": 9243,
      "max": [
        0.97814202308654785,
        1.1649099588394165
      ],
      "min": [
        0.0023660000879317522,
        0.0068430001847445965
      ],
      "type": "VEC2"
    },
    {
      "bufferView": 0,
      "byteOffset": 4728,
      "componentType": 5125,
      "count": 29646,
      "max": [
        9242
      ],
      "min": [
        0
      ],
      "type": "SCALAR"
    },
    {
      "bufferView": 2,
      "byteOffset": 232200,
      "componentType": 5126,
      "count": 777,
      "max": [
        29.706840515136719,
        39.872528076171875,
        48.001239776611328
      ],
      "min": [
        -44.430137634277344,
        -30.752185821533203,
        0.54047900438308716
      ],
      "type": "VEC3"
    },
    {
      "bufferView": 2,
      "byteOffset": 241524,
      "componentType": 5126,
      "count": 777,
      "max": [
        0.99973297119140625,
        0.99993789196014404,
        1
      ],
      "min": [
        -0.99977302551269531,
        -0.99964123964309692,
        -0.99996477365493774
      ],
      "type": "VEC3"
    },
    {
      "bufferView": 3,
      "byteOffset": 154800,
      "componentType": 5126,
      "count": 777,
      "max": [
        0.99493187665939331,
        0.99999892711639404,
        1,
        1
      ],
      "min": [
        -1,
        -0.99999862909317017,
        -0.98627251386642456,
        1
      ],
      "type": "VEC4"
    },
    {
      "bufferView": 1,
      "byteOffset": 77400,
      "componentType": 5126,
      "count": 777,
      "max": [
        0.98052000999450684,
        0.98514199256896973
      ],
      "min": [
        0.0046270000748336315,
        0.036848001182079315
      ],
      "type": "VEC2"
    },
    {
      "bufferView": 0,
      "byteOffset": 123312,
      "componentType": 5125,
      "count": 3144,
      "max": [
        776
      ],
      "min": [
        0
      ],
      "type": "SCALAR"
    }
  ],
  "asset": {
    "extras": {
      "author": "getsundar (https://sketchfab.com/getsundar)",
      "license": "CC-BY-4.0 (http://creativecommons.org/licenses/by/4.0/)",
      "source": "https://sketchfab.com/models/5c398cdd481c411db9bd6ca3f619eb67",
      "title": "Seat_obj"
    },
    "generator": "Sketchfab-3.54.8-rc1",
    "version": "2.0"
  },
  "bufferViews": [
    {
      "buffer": 0,
      "byteLength": 135888,
      "byteOffset": 0,
      "name": "floatBufferViews",
      "target": 34963
    },
    {
      "buffer": 0,
      "byteLength": 83616,
      "byteOffset": 135888,
      "byteStride": 8,
      "name": "floatBufferViews",
      "target": 34962
    },
    {
      "buffer": 0,
      "byteLength": 250848,
      "byteOffset": 219504,
      "byteStride": 12,
      "name": "floatBufferViews",
      "target": 34962
    },
    {
      "buffer": 0,
      "byteLength": 167232,
      "byteOffset": 470352,
      "byteStride": 16,
      "name": "floatBufferViews",
      "target": 34962
    }
  ],
  "buffers": [
    {
      "byteLength": 637584,
      "uri": "scene.bin"
    }
  ],
  "images": [
    {
      "uri": "textures/pCube1SG_baseColor.jpeg"
    }
  ],
  "materials": [
    {
      "doubleSided": true,
      "emissiveFactor": [
        0,
        0,
        0
      ],
      "name": "boxpolySurface100SG",
      "pbrMetallicRoughness": {
        "baseColorFactor": [
          1,
          1,
          1,
          1
        ],
        "metallicFactor": 0,
        "roughnessFactor": 1
      }
    },
    {
      "doubleSided": true,
      "emissiveFactor": [
        0,
        0,
        0
      ],
      "name": "pCube1SG",
      "pbrMetallicRoughness": {
        "baseColorFactor": [
          1,
          1,
          1,
          1
        ],
        "baseColorTexture": {
          "index": 0,
          "texCoord": 0
        },
        "metallicFactor": 0,
        "roughnessFactor": 1
      }
    }
  ],
  "meshes": [
    {
      "primitives": [
        {
          "attributes": {
            "NORMAL": 1,
            "POSITION": 0,
            "TANGENT": 2,
            "TEXCOORD_0": 3
          },
          "indices": 4,
          "material": 0,
          "mode": 4
        }
      ]
    },
    {
      "primitives": [
        {
          "attributes": {
            "NORMAL": 6,
            "POSITION": 5,
            "TANGENT": 7,
            "TEXCOORD_0": 8
          },
          "indices": 9,
          "material": 1,
          "mode": 4
        }
      ]
    },
    {
      "primitives": [
        {
          "attributes": {
            "NORMAL": 11,
            "POSITION": 10,
            "TANGENT": 12,
            "TEXCOORD_0": 13
          },
          "indices": 14,
          "material": 1,
          "mode": 4
        }
      ]
    }
  ],
  "nodes": [
    {
      "children": [
        1
      ],
      "name": "RootNode (gltf orientation matrix)",
      "rotation": [
        -0.70710678118654746,
        -0,
        -0,
        0.70710678118654757
      ]
    },
    {
      "children": [
        2
      ],
      "name": "RootNode (model correction matrix)"
    },
    {
      "children": [
        3,
        4,
        5
      ],
      "name": "seat_04.obj.cleaner.materialmerger.gles"
    },
    {
      "mesh": 0,
      "name": ""
    },
    {
      "mesh": 1,
      "name": ""
    },
    {
      "mesh": 2,
      "name": ""
    }
  ],
  "samplers": [
    {
      "magFilter": 9729,
      "minFilter": 9987,
      "wrapS": 10497,
      "wrapT": 10497
    }
  ],
  "scene": 0,
  "scenes": [
    {
      "name": "OSG_Scene",
      "nodes": [
        0
      ]
    }
  ],
  "textures": [
    {
      "sampler": 0,
      "source": 0
    }
  ]
}

